# xmcd
#
# Track frame offsets:
#	150
#	13415
#	18931
#	34924
#	60065
#	84962
#	115926
#	135116
#	164401
#	173395
#	199766
#	219001
#	233545
#	252801
#	270827
#	278569
#
# Disc length: 4345 seconds
#
# Revision: 1
# Processed by: cddbd v1.5.2PL0 Copyright (c) Steve Scherf et al.
# Submitted via: audiograbber 1.83.01
#
DISCID=b410f710
DTITLE=Schiller - Future (Limited Super Deluxe Edition) [3CD+DVD] [Box-Set] [CD
DTITLE=1)
DYEAR=2016
DGENRE=Ambient
TTITLE0=Schiller - Willkommen
TTITLE1=Schiller - The Future I
TTITLE2=Schiller mit Kéta - The Future II
TTITLE3=Schiller - The Future III
TTITLE4=Schiller - Rubinrot
TTITLE5=Schiller mit Sheppard Solomon - Sweet Symphony (My Heart Beats Again)
TTITLE6=Schiller mit Arlissa - Paradise
TTITLE7=Schiller - Schwerelos
TTITLE8=Schiller - Zwischen Gestern und Morgen
TTITLE9=Schiller mit Maggie Szabo - Something There
TTITLE10=Schiller - Once Upon A Time I
TTITLE11=Schiller - Once Upon A Time II
TTITLE12=Schiller mit Cristina Scabbia - I Breathe
TTITLE13=Schiller - Jupitermond
TTITLE14=#Schiller - Once Upon A Time - Reprise
TTITLE15=Schiller mit Emma Hewitt - Looking Out For You (Against The Tide)
EXTD=YEAR: 2016
EXTT0=
EXTT1=
EXTT2=
EXTT3=
EXTT4=
EXTT5=
EXTT6=
EXTT7=
EXTT8=
EXTT9=
EXTT10=
EXTT11=
EXTT12=
EXTT13=
EXTT14=
EXTT15=
PLAYORDER=
